# xmcd
#
# Track frame offsets:
#	150
#	13629
#	25291
#	38090
#	55311
#	68372
#	78734
#	97028
#	111537
#	131190
#	141674
#	154160
#	165504
#	176962
#	186879
#	202979
#	215168
#	228324
#
# Disc length: 3248
#
# Revision: 1
# Processed by: cddbd v1.5.1PL0 Copyright (c) Steve Scherf et al.
# Submitted via: CdAid (MTCDDB.DLL V2003.12.21)
# Normalized: r0:DSETVAR1
#
DISCID=0c0cae12
DTITLE=Various Artist - More Pure Country CD2
DYEAR=1990
DGENRE=Other
TTITLE0=Glen Campbell - Rhinestone Cowboy
TTITLE1=Wanda Jackson - Right Or Wrong
TTITLE2=Lee Hazelwood - These Boots Are Made For Walking
TTITLE3=The Marshall Tucker Band - Searchin' For A Rainbow
TTITLE4=Donna Fargo - Daddy
TTITLE5=Buck Owens - Rollin' In My Sweet Baby's Arms
TTITLE6=The Nitty Gritty Dirt Band - The Long Hard Road
TTITLE7=Loretta Lynn - Coal Miner's Daughter
TTITLE8=Marty Robbins - El Paso
TTITLE9=Johnny Cash - You Win Again
TTITLE10=Lee Hazelwood and Nancy Sinatra - Jackson
TTITLE11=Don Gibson - Sea Of Heartbreak
TTITLE12=Guy Mitchell - Heartaches By The Number
TTITLE13=Dolly Parton - Release Me
TTITLE14=Merle Haggard - Today I Started Loving You Again
TTITLE15=Johnny Paycheck - Take This Job And Shove It
TTITLE16=Bobby Bare - Detroit City
TTITLE17=Jim Reeves - The Blizzard
EXTD=ID3G:  12 YEAR: 1990
EXTT0=
EXTT1=
EXTT2=
EXTT3=
EXTT4=
EXTT5=
EXTT6=
EXTT7=
EXTT8=
EXTT9=
EXTT10=
EXTT11=
EXTT12=
EXTT13=
EXTT14=
EXTT15=
EXTT16=
EXTT17=
PLAYORDER=
